<svg width="550" height="350" viewBox="0 0 550 350" fill="none" xmlns="http://www.w3.org/2000/svg">
<path d="M247.5 278C266.544 278 282 262.544 282 243.5V209H247.5C228.456 209 213 224.456 213 243.5C213 262.544 228.456 278 247.5 278Z" fill="#0ACF83"/>
<path d="M213 174.5C213 155.456 228.456 140 247.5 140H282V209H247.5C228.456 209 213 193.544 213 174.5Z" fill="#A259FF"/>
<path d="M213 105.5C213 86.456 228.456 71 247.5 71H282V140H247.5C228.456 140 213 124.544 213 105.5Z" fill="#F24E1E"/>
<path d="M282 71H316.5C335.544 71 351 86.456 351 105.5C351 124.544 335.544 140 316.5 140H282V71Z" fill="#FF7262"/>
<path d="M351 174.5C351 193.544 335.544 209 316.5 209C297.456 209 282 193.544 282 174.5C282 155.456 297.456 140 316.5 140C335.544 140 351 155.456 351 174.5Z" fill="#1ABCFE"/>
</svg>
