<svg width="550" height="350" viewBox="0 0 550 350" fill="none" xmlns="http://www.w3.org/2000/svg">
<path fill-rule="evenodd" clip-rule="evenodd" d="M213.587 110.538C219.715 115.516 222.014 115.136 233.519 114.369L341.992 107.855C344.292 107.855 342.379 105.56 341.612 105.179L323.597 92.1555C320.145 89.4758 315.546 86.4067 306.732 87.1744L201.698 94.8353C197.868 95.2151 197.103 97.1303 198.628 98.6656L213.587 110.538ZM220.1 135.817V249.949C220.1 256.083 223.165 258.378 230.064 257.998L349.275 251.1C356.178 250.721 356.946 246.502 356.946 241.519V128.153C356.946 123.179 355.033 120.496 350.807 120.879L226.231 128.153C221.633 128.54 220.1 130.839 220.1 135.817ZM337.785 141.94C338.549 145.39 337.785 148.838 334.328 149.225L328.584 150.37V234.629C323.597 237.31 318.998 238.842 315.166 238.842C309.031 238.842 307.494 236.925 302.899 231.184L265.327 172.202V229.268L277.216 231.951C277.216 231.951 277.216 238.842 267.625 238.842L241.182 240.376C240.414 238.842 241.182 235.015 243.864 234.248L250.764 232.336V156.883L241.183 156.115C240.415 152.665 242.329 147.69 247.699 147.304L276.066 145.392L315.166 205.142V152.285L305.197 151.141C304.432 146.923 307.494 143.86 311.328 143.48L337.785 141.94ZM192.88 84.4947L302.132 76.4493C315.548 75.2986 319 76.0694 327.432 82.1949L362.307 106.706C368.061 110.921 369.979 112.069 369.979 116.664V251.1C369.979 259.526 366.91 264.509 356.179 265.271L229.305 272.932C221.25 273.317 217.416 272.169 213.198 266.803L187.516 233.482C182.914 227.349 181 222.76 181 217.391V97.8948C181 91.0048 184.07 85.2576 192.88 84.4947Z" fill="black"/>
</svg>
