<svg width="557" height="350" viewBox="0 0 557 350" fill="none" xmlns="http://www.w3.org/2000/svg">
<path d="M231.557 197.955C231.557 208.015 223.339 216.233 213.279 216.233C203.218 216.233 195 208.015 195 197.955C195 187.895 203.218 179.676 213.279 179.676H231.557V197.955Z" fill="#E01E5A"/>
<path d="M240.767 197.955C240.767 187.895 248.985 179.676 259.046 179.676C269.106 179.676 277.324 187.895 277.324 197.955V243.722C277.324 253.782 269.106 262 259.046 262C248.985 262 240.767 253.782 240.767 243.722V197.955Z" fill="#E01E5A"/>
<path d="M259.046 124.557C248.985 124.557 240.767 116.339 240.767 106.279C240.767 96.2182 248.985 88 259.046 88C269.106 88 277.324 96.2182 277.324 106.279V124.557H259.046Z" fill="#36C5F0"/>
<path d="M259.046 133.767C269.106 133.767 277.324 141.985 277.324 152.045C277.324 162.106 269.106 170.324 259.046 170.324H213.279C203.218 170.324 195 162.106 195 152.045C195 141.985 203.218 133.767 213.279 133.767H259.046Z" fill="#36C5F0"/>
<path d="M332.443 152.046C332.443 141.985 340.661 133.767 350.722 133.767C360.782 133.767 369 141.985 369 152.046C369 162.106 360.782 170.324 350.722 170.324H332.443V152.046Z" fill="#2EB67D"/>
<path d="M323.233 152.046C323.233 162.106 315.015 170.324 304.954 170.324C294.894 170.324 286.676 162.106 286.676 152.046V106.279C286.676 96.2182 294.894 88 304.954 88C315.015 88 323.233 96.2182 323.233 106.279V152.046Z" fill="#2EB67D"/>
<path d="M304.954 225.443C315.015 225.443 323.233 233.661 323.233 243.722C323.233 253.782 315.015 262 304.954 262C294.894 262 286.676 253.782 286.676 243.722V225.443H304.954Z" fill="#ECB22E"/>
<path d="M304.954 216.233C294.894 216.233 286.676 208.015 286.676 197.955C286.676 187.895 294.894 179.676 304.954 179.676H350.721C360.782 179.676 369 187.895 369 197.955C369 208.015 360.782 216.233 350.721 216.233H304.954Z" fill="#ECB22E"/>
</svg>
